Coordinates
version=1
nRows=15
nColumns=46
inDegrees=yes

Units are S.I. units (second, meters, Newtons, ...)
Angles are in degrees.

endheader
time	pelvis_tilt	pelvis_list	pelvis_rotation	pelvis_tx	pelvis_ty	pelvis_tz	bb_angle	bb_tx	bb_ty	bb_tz	hip_flexion_r	hip_adduction_r	hip_rotation_r	knee_angle_r	knee_angle_r_beta	ankle_angle_r	subtalar_angle_r	mtp_angle_r	crank_angle_r	hip_flexion_l	hip_adduction_l	hip_rotation_l	knee_angle_l	knee_angle_l_beta	ankle_angle_l	subtalar_angle_l	mtp_angle_l	crank_angle_l	lumbar_extension	lumbar_bending	lumbar_rotation	arm_flex_r	arm_add_r	arm_rot_r	elbow_flex_r	pro_sup_r	wrist_flex_r	wrist_dev_r	arm_flex_l	arm_add_l	arm_rot_l	elbow_flex_l	pro_sup_l	wrist_flex_l	wrist_dev_l
      5.00000000	     -6.20646969	      7.93469137	      0.70694095	      0.09818041	      1.15951227	     -0.23877302	      0.00000000	      0.50000000	      0.00000000	      0.25000000	     29.13924817	     -8.45125890	     12.26132220	     30.11601332	      0.52562359	      4.99536145	    -12.13914243	      0.00000000	      0.00000000	     72.59458658	     -0.31221467	     -3.02402523	    110.44907595	      1.92770003	    -18.03407432	    -13.89233103	      0.00000000	      0.00000000	    -65.49723508	     -3.01075815	     -7.31175665	     86.76602031	    -21.30247547	     47.05570408	     60.66686017	     39.14865094	      0.00000000	      0.00000000	     87.33393491	    -26.25149802	     47.42600498	     57.66869306	     48.66496289	      0.00000000	      0.00000000
      5.00500000	     -6.24646346	      8.33468863	      1.37451186	      0.09831722	      1.15812312	     -0.23893994	      0.00000000	      0.50000000	      0.00000000	      0.25000000	     28.45825719	     -9.49073766	     10.73633842	     30.02025521	      0.52395230	      5.55329486	    -10.19541241	      0.00000000	      0.00000000	     74.26325870	      0.21836394	     -2.94573369	    111.21148578	      1.94100659	    -18.37017604	    -12.79446430	      0.00000000	      0.00000000	    -65.50069946	     -3.26020909	     -6.77355646	     85.98791518	    -23.65282816	     46.22135993	     62.58073058	     39.66333608	      0.00000000	      0.00000000	     87.74248481	    -24.14895767	     48.13266503	     56.86423464	     48.61409024	      0.00000000	      0.00000000
      5.01000000	     -6.40216200	      8.65544648	      1.61258135	      0.09822788	      1.15671427	     -0.23804498	      0.00000000	      0.50000000	      0.00000000	      0.25000000	     27.92352033	    -10.00933783	     10.34261045	     29.80971933	      0.52027775	      5.20043036	     -9.82703069	      0.00000000	      0.00000000	     75.95621359	      0.28720817	     -3.02010432	    111.83618221	      1.95190960	    -18.77822449	    -12.38276466	      0.00000000	      0.00000000	    -65.41643107	     -3.79419421	     -7.03283874	     85.62662939	    -24.21640806	     46.05199868	     62.90012592	     39.76828165	      0.00000000	      0.00000000	     88.01408869	    -23.51608632	     48.09497869	     56.75233355	     48.57849166	      0.00000000	      0.00000000
      5.01500000	     -6.67866332	      8.87427898	      2.06135728	      0.09794784	      1.15493669	     -0.23725720	      0.00000000	      0.50000000	      0.00000000	      0.25000000	     27.71396361	    -10.51578001	      9.49795633	     30.10164300	      0.52537278	      5.48809776	     -9.13417374	      0.00000000	      0.00000000	     77.73267719	      0.20766412	     -3.19514581	    112.36180333	      1.96108342	    -19.07685158	    -11.90584799	      0.00000000	      0.00000000	    -65.26222320	     -4.46086777	     -4.96472240	     84.02164832	    -28.93464881	     44.44282083	     67.15618371	     41.17519827	      0.00000000	      0.00000000	     88.55906343	    -18.82233205	     48.16076698	     53.62040322	     47.91877265	      0.00000000	      0.00000000
      5.02000000	     -6.88955615	      9.14402597	      2.47829797	      0.09746594	      1.15343366	     -0.23661081	      0.00000000	      0.50000000	      0.00000000	      0.25000000	     27.58052365	    -11.04856348	      8.79388655	     30.64842797	      0.53491598	      5.65287998	     -8.36817652	      0.00000000	      0.00000000	     79.28667685	      0.38845710	     -3.30344102	    112.69124415	      1.96683325	    -19.16401921	    -11.45417054	      0.00000000	      0.00000000	    -65.14819913	     -4.77901421	     -5.11340067	     83.63919139	    -29.68141518	     44.10379255	     67.51691469	     41.41545418	      0.00000000	      0.00000000	     88.69272640	    -18.12216995	     48.07889772	     53.63768149	     47.84730463	      0.00000000	      0.00000000
      5.02500000	     -7.10524684	      9.34922025	      2.91020891	      0.09680109	      1.15200473	     -0.23608858	      0.00000000	      0.50000000	      0.00000000	      0.25000000	     27.55071778	    -11.47604490	      8.16372679	     31.31333665	      0.54652082	      5.69305967	     -8.06947805	      0.00000000	      0.00000000	     80.71190268	      0.64716665	     -3.38880637	    112.88450178	      1.97020623	    -19.06227957	    -11.28903587	      0.00000000	      0.00000000	    -65.10595105	     -5.11593591	     -4.59641884	     82.85537083	    -31.52918974	     43.03343442	     69.13114718	     42.18280679	      0.00000000	      0.00000000	     88.89132709	    -16.28272503	     47.64029262	     52.94477019	     47.43169954	      0.00000000	      0.00000000
      5.03000000	     -7.32364031	      9.54557616	      3.46385206	      0.09587975	      1.15073001	     -0.23549161	      0.00000000	      0.50000000	      0.00000000	      0.25000000	     27.61633374	    -11.86360734	      7.63431618	     32.24200524	      0.56272915	      5.60558082	     -8.27301733	      0.00000000	      0.00000000	     81.97103773	      1.07921529	     -3.45401934	    112.88193313	      1.97016140	    -18.81895907	    -11.37073714	      0.00000000	      0.00000000	    -65.03450669	     -5.20165797	     -4.91068914	     82.73923507	    -31.92358399	     42.86555680	     69.13033185	     42.23733412	      0.00000000	      0.00000000	     89.01410166	    -15.90746361	     47.49681864	     53.09164377	     47.39478660	      0.00000000	      0.00000000
      5.03500000	     -7.49516240	      9.74685801	      4.03140040	      0.09483626	      1.14966627	     -0.23483486	      0.00000000	      0.50000000	      0.00000000	      0.25000000	     27.80678939	    -12.23675755	      7.10248711	     33.49129829	      0.58453343	      5.49526568	     -8.60106524	      0.00000000	      0.00000000	     82.99359676	      1.59313987	     -3.54945620	    112.76178529	      1.96806442	    -18.15661104	    -11.47063352	      0.00000000	      0.00000000	    -65.07312405	     -5.25864621	     -5.20411411	     82.68321158	    -32.31819114	     42.63141450	     69.23199788	     42.28178856	      0.00000000	      0.00000000	     89.14871731	    -15.54839654	     47.27919323	     53.24101607	     47.35560698	      0.00000000	      0.00000000
      5.04000000	     -7.87296549	     10.08564101	      4.75320964	      0.09361796	      1.14856796	     -0.23420373	      0.00000000	      0.50000000	      0.00000000	      0.25000000	     28.37744945	    -12.80648203	      6.63956985	     35.06248796	      0.61195586	      5.48642144	     -8.54812845	      0.00000000	      0.00000000	     84.03804830	      2.33140497	     -3.71578642	    112.41218474	      1.96196274	    -17.27869100	    -11.21756343	      0.00000000	      0.00000000	    -65.00903357	     -5.42589909	     -5.39812056	     82.04992557	    -33.40710579	     41.78708478	     70.27333301	     42.56842555	      0.00000000	      0.00000000	     89.20901366	    -14.53280629	     46.32596678	     53.44645530	     47.10857106	      0.00000000	      0.00000000
      5.04500000	     -8.19000735	     10.18704227	      5.53049662	      0.09241033	      1.14772225	     -0.23434500	      0.00000000	      0.50000000	      0.00000000	      0.25000000	     28.92061643	    -13.16259864	      6.14049906	     36.72383719	      0.64095187	      5.20263577	     -9.15658757	      0.00000000	      0.00000000	     84.89362741	      3.18109848	     -3.71499389	    112.01266716	      1.95498985	    -16.08403261	    -11.45683501	      0.00000000	      0.00000000	    -65.06550825	     -5.34146377	     -4.69288556	     81.04983712	    -35.63972098	     40.10231648	     72.52670707	     43.34171894	      0.00000000	      0.00000000	     89.29636931	    -12.42481483	     45.23986375	     52.90737095	     46.32673497	      0.00000000	      0.00000000
      5.05000000	     -8.52428204	     10.39066428	      6.28003271	      0.09093542	      1.14699720	     -0.23447632	      0.00000000	      0.50000000	      0.00000000	      0.25000000	     29.72513890	    -13.57319920	      5.88731189	     38.72568027	      0.67589063	      4.65375768	     -9.87975472	      0.00000000	      0.00000000	     85.58419492	      4.05901919	     -3.80167683	    111.45728344	      1.94529657	    -14.63150032	    -11.36680136	      0.00000000	      0.00000000	    -65.02050046	     -5.17835775	     -5.06744428	     80.98645080	    -36.10468641	     39.91523454	     72.66397663	     43.45253180	      0.00000000	      0.00000000	     89.36618099	    -12.06397019	     44.79999655	     53.13756876	     46.17084803	      0.00000000	      0.00000000
      5.05500000	     -8.77806376	     10.65977555	      7.07071295	      0.08940125	      1.14679343	     -0.23442087	      0.00000000	      0.50000000	      0.00000000	      0.25000000	     30.54680372	    -14.01526441	      5.75906240	     40.89043558	      0.71367273	      3.91762213	    -10.79599659	      0.00000000	      0.00000000	     85.93765273	      5.01590969	     -3.91147075	    110.70301244	      1.93213206	    -12.78041230	    -11.25430330	      0.00000000	      0.00000000	    -65.15341892	     -4.99167958	     -5.46549361	     80.94294745	    -36.65660440	     39.62009955	     72.93760881	     43.55860604	      0.00000000	      0.00000000	     89.42838660	    -11.64815446	     44.20414063	     53.47714386	     46.02524919	      0.00000000	      0.00000000
      5.06000000	     -9.03495247	     10.91012643	      7.83272238	      0.08793243	      1.14677721	     -0.23442489	      0.00000000	      0.50000000	      0.00000000	      0.25000000	     31.48230784	    -14.43917140	      5.71564800	     43.19698574	      0.75392963	      2.96193564	    -11.62416465	      0.00000000	      0.00000000	     86.09054965	      5.95271207	     -3.99582744	    109.83154303	      1.91692205	    -10.54506910	    -10.89785746	      0.00000000	      0.00000000	    -65.31565345	     -4.81438122	     -5.78598308	     80.76514416	    -37.37356964	     39.23773291	     73.52427500	     43.73968258	      0.00000000	      0.00000000	     89.46339672	    -11.10876126	     43.34359716	     53.87662313	     45.79836251	      0.00000000	      0.00000000
      5.06500000	     -9.21623419	     11.07722093	      8.57143645	      0.08630498	      1.14702500	     -0.23437180	      0.00000000	      0.50000000	      0.00000000	      0.25000000	     32.42189649	    -14.74057660	      5.69423452	     45.52719870	      0.79459952	      1.72310473	    -12.64910659	      0.00000000	      0.00000000	     85.95887784	      6.83261451	     -3.97038377	    108.77937168	      1.89855819	     -8.05336816	    -10.44076516	      0.00000000	      0.00000000	    -65.61306186	     -4.62142917	     -5.47177724	     80.21650674	    -38.98197526	     38.19791204	     74.90200428	     44.73287772	      0.00000000	      0.00000000	     89.51361637	     -9.67191195	     42.29270542	     53.92621625	     44.84450225	      0.00000000	      0.00000000
      5.07000000	     -9.39432764	     11.45664444	      9.51262515	      0.08485146	      1.14768753	     -0.23438438	      0.00000000	      0.50000000	      0.00000000	      0.25000000	     33.42279154	    -15.36619604	      5.67093315	     48.00282335	      0.83780732	      0.18779936	    -13.67728051	      0.00000000	      0.00000000	     85.49916751	      7.95303363	     -4.16939109	    107.40023254	      1.87448768	     -5.57217169	    -10.44749579	      0.00000000	      0.00000000	    -65.97199571	     -4.36282788	     -6.04692176	     79.47429679	    -39.22307264	     36.53071984	     75.45563615	     44.94362525	      0.00000000	      0.00000000	     89.54530680	     -9.19238136	     41.34956592	     54.53636693	     44.61497622	      0.00000000	      0.00000000
